<?xml version="1.0" encoding="UTF-8"?>
<svg version="1.1" xmlns="http://www.w3.org/2000/svg" width="512" height="512">
<path d="M0 0 C1.30365551 1.08998583 2.59459989 2.19528814 3.875 3.3125 C4.84308594 4.08464844 5.81117188 4.85679688 6.80859375 5.65234375 C20.93076969 17.44073278 29.46590052 37.06408959 31.24925232 55.09683228 C31.38922043 59.03884922 31.41713949 62.97061562 31.39257812 66.9140625 C31.39801661 68.40916622 31.40514883 69.90426456 31.41381836 71.39935303 C31.43184998 75.41187774 31.42506899 79.42398503 31.41230202 83.43651581 C31.40206841 87.66553245 31.41159609 91.89451689 31.41784668 96.12353516 C31.42509328 103.22109291 31.41561441 110.31848336 31.39648438 117.41601562 C31.37472136 125.58397393 31.38177487 133.75153264 31.40379 141.91948128 C31.42202975 148.97307277 31.42446071 156.02654502 31.41403532 163.08015251 C31.4078472 167.27512013 31.40683387 171.46990087 31.42018127 175.66485596 C31.43186512 179.6115789 31.42348969 183.55779423 31.40060425 187.5044632 C31.39538319 188.93979303 31.39671521 190.37516672 31.40565491 191.81047821 C31.47920062 204.83448314 29.24201956 217.09080865 23.0625 228.6875 C22.71993164 229.35177002 22.37736328 230.01604004 22.02441406 230.70043945 C19.19120632 236.04501821 15.83479435 240.73988034 11.875 245.3125 C10.97974609 246.50166016 10.97974609 246.50166016 10.06640625 247.71484375 C1.86635931 257.43504199 -9.38512742 263.85794315 -21.125 268.3125 C-22.23617187 268.745625 -23.34734375 269.17875 -24.4921875 269.625 C-44.4933664 276.15599719 -66.8577544 273.55572972 -85.5 264.5 C-91.58504784 261.38997734 -96.96623805 257.81377268 -102.125 253.3125 C-103.09308594 252.54035156 -104.06117188 251.76820313 -105.05859375 250.97265625 C-119.18076969 239.18426722 -127.71590052 219.56091041 -129.49925232 201.52816772 C-129.63922043 197.58615078 -129.66713949 193.65438438 -129.64257812 189.7109375 C-129.64801661 188.21583378 -129.65514883 186.72073544 -129.66381836 185.22564697 C-129.68184998 181.21312226 -129.67506899 177.20101497 -129.66230202 173.18848419 C-129.65206841 168.95946755 -129.66159609 164.73048311 -129.66784668 160.50146484 C-129.67509328 153.40390709 -129.66561441 146.30651664 -129.64648438 139.20898438 C-129.62472136 131.04102607 -129.63177487 122.87346736 -129.65379 114.70551872 C-129.67202975 107.65192723 -129.67446071 100.59845498 -129.66403532 93.54484749 C-129.6578472 89.34987987 -129.65683387 85.15509913 -129.67018127 80.96014404 C-129.68186512 77.0134211 -129.67348969 73.06720577 -129.65060425 69.1205368 C-129.64538319 67.68520697 -129.64671521 66.24983328 -129.65565491 64.81452179 C-129.72919815 51.79095329 -127.49245061 39.53363942 -121.3125 27.9375 C-120.96920654 27.27250488 -120.62591309 26.60750977 -120.2722168 25.92236328 C-117.43764668 20.57926057 -114.10247632 15.870956 -110.125 11.3125 C-108.96677734 9.86037109 -108.96677734 9.86037109 -107.78515625 8.37890625 C-99.77117411 -1.22163081 -88.61503866 -7.26593272 -77.125 -11.6875 C-76.01253906 -12.12191406 -74.90007812 -12.55632813 -73.75390625 -13.00390625 C-49.0695884 -21.04522205 -20.46495623 -15.7264261 0 0 Z " fill="#00A0ED" transform="translate(305.125,63.6875)"/>
<path d="M0 0 C6.42731801 2.96645447 10.7503206 9.0304232 14.953125 14.578125 C27.82383197 31.26237478 46.15005407 41.6740803 66 48 C67.04800781 48.34160156 68.09601563 48.68320312 69.17578125 49.03515625 C94.37557944 55.78230022 122.81555216 50.80849556 145.3125 38.1875 C159.22265292 30.04968027 170.744515 18.81671183 179.796875 5.56640625 C182.94151301 1.90323751 186.0220619 0.30835833 190.78125 -0.43359375 C196.64510228 -0.44201883 200.59860794 -0.29404103 205 4 C208.06460873 8.34232961 209.71369122 12.66512184 209.37109375 18.01171875 C207.80108711 26.42364907 201.40957423 32.74272189 196 39 C194.91138672 40.29164063 194.91138672 40.29164063 193.80078125 41.609375 C188.41562682 47.83565768 182.53441092 53.00752202 176 58 C174.91912109 58.85658203 174.91912109 58.85658203 173.81640625 59.73046875 C155.75889415 73.28164985 131.8300259 84 109 84 C109 94.56 109 105.12 109 116 C112.82851563 115.95359375 116.65703125 115.9071875 120.6015625 115.859375 C124.31492792 115.82816829 128.02827867 115.80388669 131.74169922 115.78027344 C134.31989088 115.76017437 136.89803704 115.73289059 139.47607422 115.69824219 C143.18468461 115.64965153 146.89269156 115.62701342 150.6015625 115.609375 C151.75177887 115.58872986 152.90199524 115.56808472 154.08706665 115.54681396 C160.38852193 115.54505226 164.23604813 115.72116563 169 120 C172.62833663 123.81930172 173.31000458 126.88279006 173.5 132 C173.31000458 137.11720994 172.62833663 140.18069828 169 144 C163.75603208 148.04222527 160.06188828 149.12028606 153.56158447 149.14044189 C152.45697876 149.14615204 151.35237305 149.15186218 150.21429443 149.15774536 C149.00694641 149.15886322 147.79959839 149.15998108 146.55566406 149.16113281 C145.28045898 149.16609772 144.00525391 149.17106262 142.69140625 149.17617798 C139.1953502 149.18927925 135.69931334 149.19574264 132.20323658 149.20018864 C130.01681321 149.20312341 127.83039505 149.207229 125.6439743 149.21169281 C118.79677679 149.22536257 111.94959121 149.23503143 105.10238099 149.2388947 C97.21031494 149.24337248 89.31842233 149.26090943 81.42640901 149.2898953 C75.31839466 149.31154655 69.21042899 149.32160084 63.1023767 149.32293582 C59.45799697 149.32398151 55.8137804 149.32983858 52.16944122 149.34775543 C48.10015932 149.36737259 44.03123812 149.36293347 39.96191406 149.35644531 C38.16303741 149.37026749 38.16303741 149.37026749 36.32781982 149.3843689 C22.5409619 149.31556152 22.5409619 149.31556152 17.44931412 144.54802322 C12.93673755 139.30751603 12.65011559 135.72259625 12.72265625 128.984375 C13.21036334 123.73637195 15.58737843 121.27612368 19.35986328 117.86816406 C24.2260856 114.72686798 30.04365963 115.51120314 35.6171875 115.609375 C36.82948029 115.61503479 38.04177307 115.62069458 39.290802 115.62652588 C43.15260749 115.64886842 47.01347618 115.69906402 50.875 115.75 C53.49738241 115.7700676 56.1197794 115.78831791 58.7421875 115.8046875 C65.16210727 115.8453199 71.58000834 115.92362204 78 116 C78 105.11 78 94.22 78 83 C75.69 83 73.38 83 71 83 C48.27784562 79.35293826 25.27739361 69.28271998 8 54 C7.14792969 53.25621094 6.29585937 52.51242187 5.41796875 51.74609375 C2.91498107 49.52830407 0.45244928 47.27340799 -2 45 C-2.90685547 44.19175781 -2.90685547 44.19175781 -3.83203125 43.3671875 C-7.87388783 39.5998364 -11.09028064 35.34075136 -14.3125 30.875 C-14.745625 30.2766333 -15.17875 29.6782666 -15.625 29.06176758 C-19.64913238 23.35165702 -21.71785864 19.05894333 -21 12 C-19.58057401 7.6933325 -17.68528276 4.66856854 -14.4375 1.5 C-9.54796433 -0.63361557 -5.25397784 -0.75506268 0 0 Z " fill="#00A0ED" transform="translate(163,315)"/>
<path d="M0 0 C14.1664005 7.08320025 19.13824571 28.32026818 23.77056885 42.1817627 C28.37924539 56.20862815 31.54919027 70.43715115 34 85 C34.14405273 85.83370117 34.28810547 86.66740234 34.43652344 87.52636719 C38.1531287 110.21047518 37.85399956 136.3624298 34 159 C33.84402344 159.92683594 33.68804687 160.85367188 33.52734375 161.80859375 C22.34852789 226.14888946 22.34852789 226.14888946 4.4375 242.3125 C-0.15154214 245.48952917 -4.60365746 245.50821719 -10 245 C-15.62954236 242.98186217 -18.44416238 239.87829961 -21.25 234.6875 C-23.3954509 226.99963428 -21.42092832 221.82731423 -18 215 C-10.88381652 199.94946977 -5.72344162 184.3143659 -2.125 168.0625 C-1.93389648 167.20100342 -1.74279297 166.33950684 -1.54589844 165.4519043 C1.38308763 151.27609015 2.41377785 137.06818266 2.375 122.625 C2.37445618 121.85096832 2.37391235 121.07693665 2.37335205 120.27944946 C2.32640339 105.59897803 0.98789643 91.39769537 -2 77 C-2.20367187 76.01821777 -2.40734375 75.03643555 -2.6171875 74.02490234 C-6.22940522 57.36020345 -12.48855983 41.84575651 -19.19433594 26.21630859 C-19.56075195 25.34184082 -19.92716797 24.46737305 -20.3046875 23.56640625 C-20.79557861 22.41507202 -20.79557861 22.41507202 -21.29638672 21.24047852 C-22.51530224 17.35915037 -22.15939331 13.85479816 -21 10 C-16.18139937 1.0274333 -9.77325749 -1.09777619 0 0 Z " fill="#C6EBBE" transform="translate(427,70)"/>
<path d="M0 0 C4.04150782 3.04681299 5.3811116 6.95793926 6.69921875 11.703125 C6.81779657 18.58063883 3.55632233 24.98176785 0.95825195 31.26245117 C-20.58116132 83.36250306 -23.11617778 139.4913404 -5.30078125 193.078125 C-4.69073242 194.91503906 -4.69073242 194.91503906 -4.06835938 196.7890625 C-1.61167428 203.93719854 1.22305569 210.76356759 4.5234375 217.56420898 C6.84706971 222.75069168 7.40312091 227.02242059 5.63671875 232.515625 C3.64733548 237.11833447 0.82761096 240.15559158 -3.55078125 242.640625 C-8.55520892 243.92082743 -12.61504898 243.90103051 -17.42578125 242.203125 C-23.28927551 238.29412883 -26.26122499 232.9450944 -28.98828125 226.640625 C-29.32190674 225.87516357 -29.65553223 225.10970215 -29.99926758 224.32104492 C-37.89982479 205.65979355 -43.72051684 186.27633654 -47.23828125 166.328125 C-47.39522461 165.44415039 -47.55216797 164.56017578 -47.71386719 163.64941406 C-56.3247653 113.26177156 -49.29263489 61.33883557 -29.17578125 14.515625 C-28.87172363 13.79262207 -28.56766602 13.06961914 -28.25439453 12.32470703 C-25.70061525 6.59384863 -22.32850746 1.19852507 -16.86328125 -2.109375 C-10.50685946 -3.47146538 -5.67077866 -3.16404939 0 0 Z " fill="#C6EBBE" transform="translate(102.23828125,71.671875)"/>
<path d="M0 0 C6.92805751 4.66890833 10.13846889 10.89959012 13 18.5625 C13.3405542 19.4484082 13.6811084 20.33431641 14.03198242 21.24707031 C29.29336517 61.43208676 28.98153674 105.33761933 11.8125 144.9375 C11.33840698 146.04097778 11.33840698 146.04097778 10.85473633 147.16674805 C8.50384304 152.30906346 5.72793459 156.07689049 0.8984375 159.2265625 C-3.32334796 160.70989252 -7.73064358 160.45410794 -12.125 159.9375 C-16.57646251 157.75223658 -19.31385145 154.9980479 -22.125 150.9375 C-24.85858439 142.73674684 -22.140529 136.67621741 -18.875 129.125 C-5.47366825 96.63042923 -6.25008649 62.49417358 -19.125 29.9375 C-19.84747089 28.34790314 -20.57777261 26.76183879 -21.31640625 25.1796875 C-23.6526119 20.02011876 -23.98545266 15.53478801 -23.125 9.9375 C-20.93973658 5.48603749 -18.1855479 2.74864855 -14.125 -0.0625 C-9.19058151 -1.70730616 -4.86089501 -1.6527043 0 0 Z " fill="#C6EBBE" transform="translate(383.125,112.0625)"/>
<path d="M0 0 C4.63010765 4.29131929 6.81123077 7.44157773 7.1875 13.8125 C6.99702052 19.55510348 5.33576533 24.08158155 3.05810547 29.31420898 C-9.80175664 59.17148673 -9.57637373 94.03338062 1.5625 124.375 C2.48043987 126.50852236 3.41635185 128.63445634 4.375 130.75 C7.07494858 136.97867885 7.97689308 142.8988619 5.8984375 149.4765625 C4.04544019 153.26312223 1.38872607 155.84526133 -2.3828125 157.71484375 C-7.71164997 159.42696073 -13.26854848 159.3128279 -18.3125 156.8125 C-21.90924949 154.0070354 -23.60392868 151.43555259 -25.4375 147.375 C-25.88738281 146.46492187 -26.33726563 145.55484375 -26.80078125 144.6171875 C-44.73732424 106.14863277 -44.25501797 60.74778958 -30.4375 21.1875 C-29.47572566 18.56555611 -28.46554229 15.9725935 -27.4375 13.375 C-27.03789063 12.35277344 -26.63828125 11.33054687 -26.2265625 10.27734375 C-24.0162148 5.24101459 -21.68102627 1.77662099 -16.75 -0.84765625 C-10.9485002 -2.79782257 -5.50569336 -2.60269141 0 0 Z " fill="#C6EBBE" transform="translate(144.4375,113.625)"/>
</svg>
